<svg xmlns="http://www.w3.org/2000/svg" viewBox="0 0 896.27 156.41"><defs><style>.cls-1{fill:#0ba6a4;}.cls-2{fill:#f96e46;}</style></defs><g id="Camada_2" data-name="Camada 2"><g id="Camada_1-2" data-name="Camada 1"><path class="cls-1" d="M481.89,29.66A39,39,0,0,0,473,13.12q-.81-.87-1.68-1.68A35.43,35.43,0,0,0,466,7.12c-7-4.61-15.86-7-24.88-7.11h-1.24C430.86.09,422,2.51,415,7.12a35.43,35.43,0,0,0-5.32,4.32q-.87.81-1.68,1.68a39,39,0,0,0-8.89,16.54c-6.1,20.09-.95,43.62-.11,47.46a119.21,119.21,0,0,0,8,23,131.89,131.89,0,0,0,19.19,30.13c1.41,1.68,2.75,3.25,4.06,4.75A39.68,39.68,0,0,1,416,142.48v12.64c5.13-.59,10.05-3.17,14.83-5.27a44.6,44.6,0,0,0,9.67-5.77,44.6,44.6,0,0,0,9.67,5.77c4.78,2.1,9.69,4.3,14.82,4.89V143.12c-5.78-1.76-9.94-4.65-14.25-8.12,1.31-1.5,2.65-3.07,4.06-4.75A131.89,131.89,0,0,0,474,100.12a119.21,119.21,0,0,0,8-23C482.84,73.28,488,49.75,481.89,29.66ZM470,68.12c-1.83,11.68-6.46,20.94-11,30s-8.18,16.35-15.43,23.95c-1.08,1.13-2.09,2.19-3.07,3.2-1-1-2-2.07-3.07-3.2-7.25-7.6-10.86-14.83-15.43-23.95s-9.17-18.32-11-30c-.93-5.92-5.84-37.62,13-50a29.48,29.48,0,0,1,33,0C475.84,30.5,470.93,62.2,470,68.12Z"/><path class="cls-1" d="M25.89,70.12C11.43,70.12,0,63.87,0,48.55,0,33.45,11.43,27,25.89,27H38.83V143.47H74.64c20.27,0,29.12-14.46,29.12-14.46l8.2,9.49a47.92,47.92,0,0,1-37.54,17.91H25.89Zm0-30.2c-7.12,0-12.95,2.59-12.95,8.63,0,6.26,5.83,8.63,13,8.63Z"/><path class="cls-1" d="M143,70.12a43.28,43.28,0,0,1,43.15,43.15,42.4,42.4,0,0,1-12.51,30.2H184c20.49,0,29.34-14.46,29.34-14.46l8.19,9.49A47.89,47.89,0,0,1,184,156.41H143a43.15,43.15,0,0,1,0-86.29Zm0,73.35a30.2,30.2,0,1,0-30.2-30.2A30.29,30.29,0,0,0,143,143.47Z"/><path class="cls-1" d="M268.34,87.38A30.82,30.82,0,0,0,253,83.07a30.2,30.2,0,0,0,0,60.4h23.73c20.49,0,29.34-14.46,29.34-14.46l8.2,9.49a47.92,47.92,0,0,1-37.54,17.91H253A43.15,43.15,0,1,1,275.67,76.6Z"/><path class="cls-1" d="M376.19,144.11c-1.51,3.24-18.55,12.3-30.2,12.3a43.15,43.15,0,1,1,30.2-74V70.12h12.95v73.35h17.47c20.28,0,29.12-14.46,29.12-14.46l8.2,9.49a47.75,47.75,0,0,1-37.32,17.91H376.19Zm-30.2-.64a30.2,30.2,0,1,0-30.2-30.2A30.29,30.29,0,0,0,346,143.47Z"/><path class="cls-1" d="M501.09,70.12H514v43.15a30.29,30.29,0,0,0,30.2,30.2c20.49,0,29.34-14.46,29.34-14.46l8.19,9.49a47.89,47.89,0,0,1-37.53,17.91,43.26,43.26,0,0,1-43.14-43.14Z"/><path class="cls-1" d="M622.1,70.12c19.63,7.34,33.22,23.95,33.22,43.15a42.4,42.4,0,0,1-12.51,30.2h19c20.49,0,29.34-14.46,29.34-14.46l8.19,9.49a47.89,47.89,0,0,1-37.53,17.91H612.18c-12.95,0-33.44-5.83-40.13-26.75Zm20.28,43.15a30.62,30.62,0,0,0-16.61-27l-38.4,44.44c3.45,6.9,14.67,12.73,25.24,12.73C629.43,142.82,642.38,129.44,642.38,113.27Z"/><path class="cls-1" d="M687.24,113.27V82H676.46V70.12h10.78V39.92l12.94-2.15V70.12h30.2L728.23,82H700.18v31.28a30.3,30.3,0,0,0,30.2,30.2c20.5,0,29.34-14.46,29.34-14.46l8.2,9.49a47.92,47.92,0,0,1-37.54,17.91A43.27,43.27,0,0,1,687.24,113.27Z"/><path class="cls-1" d="M828.53,144.11c-1.51,3.24-18.55,12.3-30.2,12.3a43.15,43.15,0,1,1,30.2-74V70.12h12.94v73.35H859c20.27,0,29.12-14.46,29.12-14.46l8.2,9.49A47.75,47.75,0,0,1,859,156.41H828.53Zm-30.2-.64a30.2,30.2,0,1,0-30.2-30.2A30.29,30.29,0,0,0,798.33,143.47Z"/><path class="cls-2" d="M506.48,27a10.79,10.79,0,1,1-10.79,10.79A10.68,10.68,0,0,1,506.48,27Z"/><path class="cls-2" d="M447.48,27a10.79,10.79,0,1,1-10.79,10.79A10.68,10.68,0,0,1,447.48,27Z"/><path class="cls-2" d="M451,135.12c7,5,8,8,24.2,8.35,20.49.43,28.8-14.35,28.8-14.35l7,11s-11,16.29-35.8,16.29c-21.2-1.29-31.2-9.29-34.2-12.29"/></g></g></svg>